<?xml version="1.0" encoding="UTF-8"?>
<svg id="Layer_1" data-name="Layer 1" xmlns="http://www.w3.org/2000/svg" xmlns:xlink="http://www.w3.org/1999/xlink" viewBox="0 0 28.21 19.81" width="28.21" height="19.81">
    <defs>
        <clipPath id="clip-path">
            <rect width="29" height="20" transform="translate(29 20) rotate(180)" style="fill:none"/>
        </clipPath>
        <clipPath id="clip-path-2">
            <rect x="-527" y="-434" width="1500" height="900" style="fill:none"/>
        </clipPath>
    </defs>
    <title>open-curly-quote</title>
    <g style="clip-path:url(#clip-path)">
        <g style="clip-path:url(#clip-path-2)">
            <path d="M8.93,7.85a5.58,5.58,0,0,1,4.69,5.67,6.15,6.15,0,0,1-6.44,6.16c-3.5,0-6.44-2.38-6.44-6.86A13.61,13.61,0,0,1,3.4,5.61L7.11-.13H14Zm14.91,0a5.58,5.58,0,0,1,4.69,5.67,6.15,6.15,0,0,1-6.44,6.16c-3.5,0-6.44-2.38-6.44-6.86a13.61,13.61,0,0,1,2.66-7.21L22-.13H29Z" style="fill:#4d64ff"/>
        </g>
    </g>
</svg>